<svg width="300" height="400" viewBox="0 0 300 400" fill="none" xmlns="http://www.w3.org/2000/svg">
<path d="M245.883 12H54.0176C33.0551 12 16 30.124 16 52.401V347.599C16 369.876 33.0551 388 54.0176 388H245.882C266.845 388 283.9 369.876 283.9 347.599V52.401C283.9 30.1244 266.845 12 245.883 12ZM269.859 347.599C269.859 361.649 259.105 373.078 245.883 373.078H54.0176C40.7957 373.078 30.0417 361.649 30.0417 347.599V52.401C30.0417 38.3517 40.7957 26.922 54.0176 26.922H245.882C259.104 26.922 269.858 38.3517 269.858 52.401V347.599H269.859Z" fill="#142896"/>
<path d="M223.544 47.72H76.3591C62.7731 47.72 51.7197 59.5517 51.7197 74.0967V325.903C51.7197 340.448 62.7731 352.28 76.3591 352.28H223.544C237.13 352.28 248.18 340.448 248.18 325.903V74.0967C248.18 59.5521 237.13 47.72 223.544 47.72ZM234.219 74.0967V93.283C224.356 95.1621 216.841 93.8382 211.915 89.2639C202.977 80.9692 203.922 64.1657 203.945 63.7591C203.945 63.7561 203.946 63.7349 203.946 63.734L196.987 63.1776L190.879 62.6668H223.544C229.43 62.6664 234.219 67.7933 234.219 74.0967ZM76.3591 62.6664H190.022C189.925 64.0979 188.554 87.2743 202.692 100.484C208.826 106.217 216.683 109.092 226.144 109.092C228.712 109.092 231.415 108.854 234.218 108.43V290.389C227.195 289.602 212.158 289.383 201.386 299.603C192.707 307.841 188.962 320.542 190.225 337.334H107.254C107.434 333.495 107.783 312.414 94.5557 300.054C87.292 293.269 77.5788 290.552 65.6808 291.806V110.375C66.7059 110.438 67.8061 110.483 68.9967 110.483C76.7471 110.483 87.5719 108.799 95.8617 100.937C104.614 92.6302 108.363 79.7965 107.004 62.7921L93.0907 64.0693C94.0554 76.0764 91.8838 84.7044 86.6459 89.7107C80.4107 95.6641 70.8806 95.8383 65.6813 95.4014V74.0967C65.6808 67.7933 70.4694 62.6664 76.3591 62.6664ZM65.6808 325.904V306.811C74.2449 305.642 80.854 307.121 85.3326 311.275C94.2706 319.57 93.3269 336.373 93.3033 336.78L99.9334 337.334H99.9325L93.3033 336.78C93.3025 336.783 93.3016 336.804 93.3016 336.806L99.9171 337.334H76.3591C70.4694 337.334 65.6808 332.207 65.6808 325.904ZM223.544 337.334H194.737L204.158 336.469C203.194 324.462 205.364 315.836 210.603 310.83C218.172 303.597 230.591 304.884 234.219 305.447V325.904C234.219 332.207 229.43 337.334 223.544 337.334Z" fill="#142896"/>
</svg>
