<svg width="82" height="72" viewBox="0 0 82 72" fill="none" xmlns="http://www.w3.org/2000/svg">
<path d="M9.52148 35.8374C9.52148 15.8708 25.3923 0 45.3589 0C65.3254 0 81.1962 15.8708 81.1962 35.8374C81.1962 55.8039 65.3254 71.6748 45.3589 71.6748C43.823 71.6748 42.7991 70.6508 42.7991 69.115C42.7991 67.5791 43.823 66.5551 45.3589 66.5551C62.2536 66.5551 76.0766 52.7321 76.0766 35.8374C76.0766 18.9426 62.2536 5.11963 45.3589 5.11963C28.4641 5.11963 14.6411 18.9426 14.6411 35.8374H9.52148Z" fill="#9D8729"/>
<path d="M12.0813 38.3972H11.5694C11.0574 38.3972 10.5454 37.8852 10.0335 37.3733L0.306193 21.5024C-0.20577 20.4785 -0.205771 18.9426 1.33012 17.9187C2.35404 17.4067 3.88993 17.4067 4.91386 18.9426L13.1053 32.7656L26.9282 24.5742C27.9522 24.0622 29.4881 24.0622 30.512 25.5981C31.024 26.622 31.0239 28.1579 29.4881 29.1819L13.6172 38.9091C13.1053 38.3972 12.5933 38.3972 12.0813 38.3972Z" fill="#9D8729"/>
</svg>
