<svg width="96" height="96" viewBox="0 0 96 96" fill="none" xmlns="http://www.w3.org/2000/svg">
<path d="M48 1.63052e-05C38.5065 1.63052e-05 29.2262 2.81517 21.3326 8.08947C13.4391 13.3638 7.28681 20.8604 3.6538 29.6312C0.0207975 38.4021 -0.929762 48.0532 0.922328 57.3643C2.77442 66.6754 7.34597 75.2282 14.0589 81.9411C20.7718 88.654 29.3246 93.2256 38.6357 95.0777C47.9468 96.9298 57.5979 95.9792 66.3688 92.3462C75.1396 88.7132 82.6362 82.5609 87.9105 74.6674C93.1848 66.7738 96 57.4935 96 48C96.0052 41.6951 94.7672 35.451 92.3568 29.6251C89.9464 23.7991 86.411 18.5055 81.9527 14.0473C77.4945 9.58905 72.2009 6.05359 66.375 3.64321C60.549 1.23283 54.3049 -0.0051824 48 1.63052e-05ZM48 84.7059C40.7403 84.7059 33.6436 82.5531 27.6073 78.5198C21.5711 74.4865 16.8664 68.7538 14.0882 62.0467C11.31 55.3396 10.5831 47.9593 11.9994 40.839C13.4157 33.7188 16.9116 27.1784 22.045 22.045C27.1784 16.9116 33.7188 13.4157 40.839 11.9994C47.9593 10.5831 55.3396 11.31 62.0467 14.0882C68.7539 16.8664 74.4865 21.5711 78.5198 27.6073C82.5531 33.6436 84.7059 40.7403 84.7059 48C84.7156 52.823 83.7727 57.6004 81.9315 62.0582C80.0903 66.5159 77.3869 70.5662 73.9766 73.9765C70.5662 77.3869 66.5159 80.0903 62.0582 81.9315C57.6004 83.7727 52.823 84.7155 48 84.7059ZM62.1176 33.0353L45.7412 52.8L34.4471 44.6118C31.9059 42.6353 28.5177 43.2 26.5412 45.7412C24.5647 48.2824 25.1294 51.6706 27.6706 53.6471C31.0588 56.1882 34.7294 58.7294 38.1177 61.2706C40.6588 62.9647 42.9177 65.5059 46.0235 65.7882C46.8706 65.7882 48 65.7882 48.8471 65.2235L50.5412 63.5294L63.2471 48.2824C65.5059 45.4588 67.7647 42.9176 70.0235 40.0941C71.7176 37.8353 72.2823 35.0118 70.3059 32.7529L69.4588 31.9059C67.4823 30.4941 64.0941 30.7765 62.1176 33.0353Z" fill="#A7E5B4"/>
</svg>
