<svg width="96" height="96" viewBox="0 0 96 96" fill="none" xmlns="http://www.w3.org/2000/svg">
<path d="M48 1.63052e-05C38.5065 1.63052e-05 29.2262 2.81517 21.3326 8.08947C13.4391 13.3638 7.28681 20.8604 3.6538 29.6312C0.0207975 38.4021 -0.929762 48.0532 0.922328 57.3643C2.77442 66.6754 7.34597 75.2282 14.0589 81.9411C20.7718 88.654 29.3246 93.2256 38.6357 95.0777C47.9468 96.9298 57.5979 95.9792 66.3688 92.3462C75.1396 88.7132 82.6362 82.5609 87.9105 74.6674C93.1848 66.7738 96 57.4935 96 48C96.0052 41.6951 94.7672 35.451 92.3568 29.6251C89.9464 23.7991 86.411 18.5055 81.9527 14.0473C77.4945 9.58905 72.2009 6.05359 66.375 3.64321C60.549 1.23283 54.3049 -0.0051824 48 1.63052e-05ZM48 84.7059C40.7403 84.7059 33.6436 82.5531 27.6073 78.5198C21.5711 74.4865 16.8664 68.7538 14.0882 62.0467C11.31 55.3396 10.5831 47.9593 11.9994 40.839C13.4157 33.7188 16.9116 27.1784 22.045 22.045C27.1784 16.9116 33.7188 13.4157 40.839 11.9994C47.9593 10.5831 55.3396 11.31 62.0467 14.0882C68.7539 16.8664 74.4865 21.5711 78.5198 27.6073C82.5531 33.6436 84.7059 40.7403 84.7059 48C84.7156 52.823 83.7727 57.6004 81.9315 62.0582C80.0903 66.5159 77.3869 70.5662 73.9766 73.9765C70.5662 77.3869 66.5159 80.0903 62.0582 81.9315C57.6004 83.7727 52.823 84.7155 48 84.7059Z" fill="#B93C3C"/>
<path d="M62.9442 31.3367C62.4525 30.7932 61.8611 30.3606 61.2059 30.065C60.5507 29.7694 59.8454 29.617 59.1326 29.617C58.4198 29.617 57.7145 29.7694 57.0593 30.065C56.4041 30.3606 55.8127 30.7932 55.321 31.3367L47.4255 39.6523L39.8023 31.6234C38.7879 30.5764 37.4222 29.9933 36.0019 30.0009C34.5817 30.0085 33.2216 30.606 32.2173 31.6638C31.213 32.7215 30.6457 34.1539 30.6385 35.6498C30.6313 37.1456 31.1849 38.584 32.179 39.6523L39.8023 47.6813L32.179 55.7102C31.1849 56.7786 30.6313 58.2169 30.6385 59.7128C30.6457 61.2086 31.213 62.641 32.2173 63.6988C33.2216 64.7565 34.5817 65.3541 36.0019 65.3616C37.4222 65.3692 38.7879 64.7861 39.8023 63.7391L47.4255 55.7102L55.0487 63.7391C56.0631 64.7861 57.4288 65.3692 58.8491 65.3616C60.2693 65.3541 61.6294 64.7565 62.6337 63.6988C63.638 62.641 64.2053 61.2086 64.2125 59.7128C64.2197 58.2169 63.6661 56.7786 62.672 55.7102L55.0487 47.6813L62.672 39.6523C63.6929 38.5512 64.2867 37.0882 64.3371 35.55C64.3874 34.0119 63.8907 32.5093 62.9442 31.3367Z" fill="#B93C3C"/>
</svg>
