<svg width="495" height="349" viewBox="0 0 495 349" fill="none" xmlns="http://www.w3.org/2000/svg">
<g clip-path="url(#clip0_335_4088)">
<path d="M176.625 77.8281L174.469 112.234L163.781 112.703L163.875 94.5625L159.047 109.187H154.922L151.219 96.1093L151.172 111.297L140.344 111.625L140.812 79.2343L152.859 78.7656L157.641 94.2812L164.016 77.8281H176.625ZM207.492 109.984L195.867 111.484L194.461 106.187H189.117L187.945 111.484L175.992 110.312L185.32 79.0937L198.352 78.4375L207.492 109.984ZM193.617 99.0156L191.836 90.8593L190.102 99.0156H193.617ZM235.805 112L224.086 112.562L223.992 101.734H218.602L218.273 112H207.773L208.664 79.0468L219.82 79.5625L219.117 96.3906H224.32L224.367 78.2968L235.055 78.5781L235.805 112ZM260.414 92.6875C260.414 93.6093 260.414 94.5234 260.414 95.4296C260.414 96.3359 260.367 97.25 260.273 98.1718C260.102 100.125 259.68 101.977 259.008 103.727C258.336 105.461 257.422 106.984 256.266 108.297C255.125 109.609 253.734 110.648 252.094 111.414C250.453 112.18 248.57 112.562 246.445 112.562C245.617 112.562 244.75 112.492 243.844 112.352C242.953 112.211 242.062 112 241.172 111.719C240.297 111.437 239.453 111.094 238.641 110.687C237.844 110.266 237.133 109.781 236.508 109.234L237.961 99.5312C238.883 100.422 239.906 101.148 241.031 101.711C242.156 102.258 243.383 102.531 244.711 102.531C245.57 102.531 246.297 102.406 246.891 102.156C247.484 101.906 247.977 101.562 248.367 101.125C248.758 100.687 249.062 100.18 249.281 99.6015C249.516 99.0078 249.68 98.3828 249.773 97.7265C249.883 97.0546 249.945 96.3671 249.961 95.664C249.992 94.9609 250.008 94.2656 250.008 93.5781C250.008 91.0937 249.883 88.625 249.633 86.1718C249.383 83.7031 249.164 81.2343 248.977 78.7656L259.711 78.0625C260.18 82.9375 260.414 87.8125 260.414 92.6875ZM291.469 95.4531C291.469 96.875 291.305 98.25 290.977 99.5781C290.648 100.891 290.172 102.125 289.547 103.281C288.938 104.437 288.188 105.5 287.297 106.469C286.422 107.422 285.43 108.242 284.32 108.93C283.227 109.617 282.031 110.156 280.734 110.547C279.438 110.922 278.062 111.109 276.609 111.109C275.203 111.109 273.859 110.93 272.578 110.57C271.312 110.211 270.125 109.711 269.016 109.07C267.906 108.414 266.898 107.633 265.992 106.727C265.102 105.805 264.336 104.789 263.695 103.68C263.07 102.555 262.578 101.352 262.219 100.07C261.875 98.789 261.703 97.4531 261.703 96.0625C261.703 94.7031 261.867 93.375 262.195 92.0781C262.523 90.7656 262.992 89.5312 263.602 88.375C264.227 87.2187 264.977 86.1562 265.852 85.1875C266.727 84.2187 267.703 83.3828 268.781 82.6796C269.875 81.9765 271.055 81.4296 272.32 81.039C273.586 80.6484 274.922 80.4531 276.328 80.4531C278.594 80.4531 280.656 80.8046 282.516 81.5078C284.391 82.2109 285.984 83.2187 287.297 84.5312C288.625 85.8281 289.648 87.4062 290.367 89.2656C291.102 91.1093 291.469 93.1718 291.469 95.4531ZM281.062 96.0625C281.062 95.3906 280.961 94.7421 280.758 94.1171C280.57 93.4765 280.289 92.914 279.914 92.4296C279.539 91.9296 279.07 91.5312 278.508 91.2343C277.961 90.9218 277.328 90.7656 276.609 90.7656C275.875 90.7656 275.219 90.8984 274.641 91.164C274.062 91.4296 273.562 91.7968 273.141 92.2656C272.734 92.7187 272.422 93.2578 272.203 93.8828C271.984 94.4921 271.875 95.1406 271.875 95.8281C271.875 96.4843 271.969 97.1406 272.156 97.7968C272.344 98.4531 272.625 99.0468 273 99.5781C273.375 100.109 273.836 100.539 274.383 100.867C274.945 101.195 275.594 101.359 276.328 101.359C277.062 101.359 277.719 101.219 278.297 100.937C278.891 100.641 279.391 100.25 279.797 99.7656C280.203 99.2656 280.516 98.6953 280.734 98.0546C280.953 97.414 281.062 96.75 281.062 96.0625ZM324.984 78.3906L323.297 110.172L311.016 111.297L304.453 94.2812L303.422 111.625H292.875L293.719 78.3906L305.438 77.8281L313.547 94.7031L313.922 78.7656L324.984 78.3906ZM355.195 107.219C354.461 108.141 353.555 108.945 352.477 109.633C351.398 110.32 350.242 110.891 349.008 111.344C347.773 111.797 346.508 112.133 345.211 112.352C343.914 112.586 342.68 112.703 341.508 112.703C339.242 112.703 337.156 112.297 335.25 111.484C333.344 110.672 331.695 109.555 330.305 108.133C328.93 106.695 327.852 105.008 327.07 103.07C326.289 101.133 325.898 99.0468 325.898 96.8125C325.898 95.1093 326.094 93.4453 326.484 91.8203C326.875 90.1796 327.43 88.6406 328.148 87.2031C328.883 85.75 329.773 84.4218 330.82 83.2187C331.867 82 333.055 80.9531 334.383 80.0781C335.711 79.2031 337.164 78.5234 338.742 78.039C340.32 77.5546 342.008 77.3125 343.805 77.3125C344.477 77.3125 345.195 77.3437 345.961 77.4062C346.727 77.4531 347.484 77.5468 348.234 77.6875C349 77.8125 349.742 77.9921 350.461 78.2265C351.18 78.4609 351.836 78.75 352.43 79.0937L351.773 88.0468C350.898 87.7187 349.992 87.5 349.055 87.3906C348.133 87.2656 347.227 87.2031 346.336 87.2031C345.086 87.2031 343.914 87.3984 342.82 87.789C341.742 88.164 340.797 88.7109 339.984 89.4296C339.188 90.1484 338.555 91.0234 338.086 92.0546C337.617 93.0859 337.383 94.25 337.383 95.5468C337.383 96.3593 337.492 97.1484 337.711 97.914C337.93 98.664 338.258 99.3359 338.695 99.9296C339.148 100.508 339.703 100.977 340.359 101.336C341.031 101.695 341.805 101.875 342.68 101.875C343.273 101.875 343.883 101.797 344.508 101.641C345.148 101.484 345.695 101.219 346.148 100.844L346.242 99.0156L340.617 98.9218L340.898 91.8906C343.227 91.8125 345.555 91.75 347.883 91.7031C350.211 91.6406 352.555 91.5625 354.914 91.4687L355.195 107.219ZM215.977 126.484L215.742 136.422L208.758 136.703L206.977 158.922L197.086 159.437L197.133 137.219L190.148 137.594L190.43 126.531L215.977 126.484ZM229.922 127L227.344 158.922L217.453 159.437V127.656L229.922 127ZM267.797 125.828L265.641 160.234L254.953 160.703L255.047 142.562L250.219 157.187H246.094L242.391 144.109L242.344 159.297L231.516 159.625L231.984 127.234L244.031 126.766L248.812 142.281L255.188 125.828H267.797ZM291.727 126.203C291.633 127.672 291.547 129.125 291.469 130.562C291.391 132 291.289 133.453 291.164 134.922L281.227 135.437L280.992 138.391H287.977L287.461 145.656L280.43 145.891L280.195 149.312H286.008H290.133C290.039 151.031 289.938 152.742 289.828 154.445C289.734 156.133 289.648 157.828 289.57 159.531L269.367 160L270.117 126.203H291.727ZM304.266 125.172L302.344 149.828H293.672L292.781 125.172H304.266ZM302.719 157.047C302.719 157.734 302.586 158.375 302.32 158.969C302.055 159.562 301.695 160.078 301.242 160.516C300.805 160.969 300.289 161.32 299.695 161.57C299.102 161.836 298.469 161.969 297.797 161.969C297.109 161.969 296.469 161.836 295.875 161.57C295.281 161.32 294.758 160.969 294.305 160.516C293.867 160.078 293.516 159.562 293.25 158.969C293 158.375 292.875 157.734 292.875 157.047C292.875 156.375 293 155.734 293.25 155.125C293.516 154.516 293.867 153.992 294.305 153.555C294.758 153.102 295.281 152.742 295.875 152.477C296.469 152.211 297.109 152.078 297.797 152.078C298.469 152.078 299.102 152.211 299.695 152.477C300.289 152.742 300.805 153.102 301.242 153.555C301.695 153.992 302.055 154.516 302.32 155.125C302.586 155.734 302.719 156.375 302.719 157.047Z" fill="#ECE0B1"/>
<path d="M235.207 41.5L233.918 57.4609L228.973 57.7188V41.8281L235.207 41.5ZM248.414 41.2422L248.297 46.2109L244.805 46.3516L243.914 57.4609L238.969 57.7188L238.992 46.6094L235.5 46.7969L235.641 41.2656L248.414 41.2422ZM253.852 43.2109C253.844 43.5781 253.762 43.9844 253.605 44.4297C253.457 44.875 253.242 45.3164 252.961 45.7539C252.68 46.1836 252.34 46.5938 251.941 46.9844C251.551 47.3672 251.109 47.6875 250.617 47.9453C250.617 47.9375 250.613 47.8477 250.605 47.6758C250.598 47.4961 250.586 47.2812 250.57 47.0312C250.562 46.7734 250.551 46.5 250.535 46.2109C250.52 45.9219 250.508 45.6641 250.5 45.4375C250.016 45.2578 249.633 44.957 249.352 44.5352C249.07 44.1133 248.93 43.6484 248.93 43.1406C248.93 42.8047 248.992 42.4883 249.117 42.1914C249.25 41.8945 249.426 41.6367 249.645 41.418C249.871 41.1914 250.133 41.0117 250.43 40.8789C250.727 40.7461 251.047 40.6797 251.391 40.6797C251.727 40.6797 252.043 40.7461 252.34 40.8789C252.645 41.0117 252.906 41.1914 253.125 41.418C253.352 41.6367 253.531 41.8945 253.664 42.1914C253.797 42.4883 253.859 42.8047 253.852 43.1406V43.2109ZM266.566 51.7656C266.566 52.8359 266.379 53.7734 266.004 54.5781C265.637 55.375 265.129 56.0391 264.48 56.5703C263.84 57.1016 263.086 57.5 262.219 57.7656C261.359 58.0312 260.434 58.1641 259.441 58.1641C259.059 58.1641 258.637 58.1133 258.176 58.0117C257.723 57.9102 257.262 57.7852 256.793 57.6367C256.324 57.4805 255.871 57.3164 255.434 57.1445C255.004 56.9648 254.621 56.7969 254.285 56.6406L254.801 51.8125C255.465 52.2109 256.199 52.5156 257.004 52.7266C257.816 52.9297 258.613 53.0312 259.395 53.0312C259.543 53.0312 259.723 53.0273 259.934 53.0195C260.145 53.0039 260.344 52.9688 260.531 52.9141C260.727 52.8516 260.891 52.7617 261.023 52.6445C261.156 52.5273 261.223 52.3594 261.223 52.1406C261.223 51.9922 261.176 51.8672 261.082 51.7656C260.988 51.6562 260.867 51.5703 260.719 51.5078C260.57 51.4375 260.402 51.3867 260.215 51.3555C260.027 51.3164 259.844 51.2891 259.664 51.2734C259.484 51.2578 259.316 51.25 259.16 51.25C259.004 51.25 258.879 51.25 258.785 51.25C258.113 51.25 257.5 51.1328 256.945 50.8984C256.398 50.6641 255.926 50.3398 255.527 49.9258C255.137 49.5039 254.832 49.0078 254.613 48.4375C254.395 47.8594 254.285 47.2344 254.285 46.5625C254.285 45.6406 254.469 44.8164 254.836 44.0898C255.211 43.3555 255.707 42.7344 256.324 42.2266C256.949 41.7109 257.664 41.3164 258.469 41.043C259.273 40.7695 260.105 40.6328 260.965 40.6328C261.348 40.6328 261.742 40.6484 262.148 40.6797C262.555 40.7031 262.957 40.75 263.355 40.8203C263.762 40.8906 264.156 40.9805 264.539 41.0898C264.922 41.1992 265.285 41.3359 265.629 41.5L265.184 46.2578C264.652 46.0781 264.094 45.9297 263.508 45.8125C262.93 45.6875 262.363 45.625 261.809 45.625C261.707 45.625 261.574 45.6289 261.41 45.6367C261.254 45.6367 261.086 45.6484 260.906 45.6719C260.734 45.6875 260.559 45.7148 260.379 45.7539C260.199 45.793 260.039 45.8477 259.898 45.918C259.758 45.9805 259.645 46.0664 259.559 46.1758C259.473 46.2852 259.434 46.4141 259.441 46.5625C259.449 46.7344 259.512 46.875 259.629 46.9844C259.754 47.0859 259.91 47.168 260.098 47.2305C260.293 47.2852 260.504 47.3242 260.73 47.3477C260.965 47.3711 261.195 47.3867 261.422 47.3945C261.648 47.3945 261.859 47.3945 262.055 47.3945C262.25 47.3867 262.41 47.3906 262.535 47.4062C263.16 47.4453 263.723 47.5781 264.223 47.8047C264.723 48.0312 265.145 48.332 265.488 48.707C265.84 49.082 266.105 49.5312 266.285 50.0547C266.473 50.5703 266.566 51.1406 266.566 51.7656Z" fill="#ECE0B1"/>
<rect x="57.8628" y="62.8736" width="14.2299" height="22.3914" rx="2.5" transform="rotate(-45 57.8628 62.8736)" fill="#3B7D32" stroke="#A7E5B4" stroke-width="3"/>
<rect x="130.963" y="-10.2266" width="14.2299" height="22.3914" rx="2.5" transform="rotate(-45 130.963 -10.2266)" fill="#3B7D32" stroke="#A7E5B4" stroke-width="3"/>
<rect x="70.0462" y="50.6902" width="14.2299" height="22.3914" rx="2.5" transform="rotate(-45 70.0462 50.6902)" fill="#3B7D32" stroke="#A7E5B4" stroke-width="3"/>
<rect x="82.2295" y="38.5069" width="14.2299" height="22.3914" rx="2.5" transform="rotate(-45 82.2295 38.5069)" fill="#3B7D32" stroke="#A7E5B4" stroke-width="3"/>
<rect x="94.4129" y="26.3235" width="14.2299" height="22.3914" rx="2.5" transform="rotate(-45 94.4129 26.3235)" fill="#3B7D32" stroke="#A7E5B4" stroke-width="3"/>
<rect x="106.596" y="14.1401" width="14.2299" height="22.3914" rx="2.5" transform="rotate(-45 106.596 14.1401)" fill="#3B7D32" stroke="#A7E5B4" stroke-width="3"/>
<rect x="118.78" y="1.95674" width="14.2299" height="22.3914" rx="2.5" transform="rotate(-45 118.78 1.95674)" fill="#3B7D32" stroke="#A7E5B4" stroke-width="3"/>
<rect x="203.422" y="300.77" width="14.2299" height="22.3914" rx="2.5" transform="rotate(-45 203.422 300.77)" fill="#3B7D32" stroke="#A7E5B4" stroke-width="3"/>
<rect x="276.522" y="227.67" width="14.2299" height="22.3914" rx="2.5" transform="rotate(-45 276.522 227.67)" fill="#3B7D32" stroke="#A7E5B4" stroke-width="3"/>
<rect x="349.623" y="154.57" width="14.2299" height="22.3914" rx="2.5" transform="rotate(-45 349.623 154.57)" fill="#3B7D32" stroke="#A7E5B4" stroke-width="3"/>
<rect x="215.606" y="288.587" width="14.2299" height="22.3914" rx="2.5" transform="rotate(-45 215.606 288.587)" fill="#3B7D32" stroke="#A7E5B4" stroke-width="3"/>
<rect x="288.706" y="215.486" width="14.2299" height="22.3914" rx="2.5" transform="rotate(-45 288.706 215.486)" fill="#3B7D32" stroke="#A7E5B4" stroke-width="3"/>
<rect x="361.806" y="142.386" width="14.2299" height="22.3914" rx="2.5" transform="rotate(-45 361.806 142.386)" fill="#3B7D32" stroke="#A7E5B4" stroke-width="3"/>
<rect x="227.789" y="276.403" width="14.2299" height="22.3914" rx="2.5" transform="rotate(-45 227.789 276.403)" fill="#3B7D32" stroke="#A7E5B4" stroke-width="3"/>
<rect x="300.889" y="203.303" width="14.2299" height="22.3914" rx="2.5" transform="rotate(-45 300.889 203.303)" fill="#3B7D32" stroke="#A7E5B4" stroke-width="3"/>
<rect x="373.989" y="130.203" width="14.2299" height="22.3914" rx="2.5" transform="rotate(-45 373.989 130.203)" fill="#3B7D32" stroke="#A7E5B4" stroke-width="3"/>
<rect x="239.972" y="264.22" width="14.2299" height="22.3914" rx="2.5" transform="rotate(-45 239.972 264.22)" fill="#3B7D32" stroke="#A7E5B4" stroke-width="3"/>
<rect x="313.073" y="191.12" width="14.2299" height="22.3914" rx="2.5" transform="rotate(-45 313.073 191.12)" fill="#3B7D32" stroke="#A7E5B4" stroke-width="3"/>
<rect x="386.173" y="118.019" width="14.2299" height="22.3914" rx="2.5" transform="rotate(-45 386.173 118.019)" fill="#3B7D32" stroke="#A7E5B4" stroke-width="3"/>
<rect x="252.156" y="252.036" width="14.2299" height="22.3914" rx="2.5" transform="rotate(-45 252.156 252.036)" fill="#3B7D32" stroke="#A7E5B4" stroke-width="3"/>
<rect x="325.256" y="178.936" width="14.2299" height="22.3914" rx="2.5" transform="rotate(-45 325.256 178.936)" fill="#3B7D32" stroke="#A7E5B4" stroke-width="3"/>
<rect x="398.356" y="105.836" width="14.2299" height="22.3914" rx="2.5" transform="rotate(-45 398.356 105.836)" fill="#3B7D32" stroke="#A7E5B4" stroke-width="3"/>
<rect x="264.339" y="239.853" width="14.2299" height="22.3914" rx="2.5" transform="rotate(-45 264.339 239.853)" fill="#3B7D32" stroke="#A7E5B4" stroke-width="3"/>
<rect x="337.439" y="166.753" width="14.2299" height="22.3914" rx="2.5" transform="rotate(-45 337.439 166.753)" fill="#3B7D32" stroke="#A7E5B4" stroke-width="3"/>
<rect x="410.539" y="93.6526" width="14.2299" height="22.3914" rx="2.5" transform="rotate(-45 410.539 93.6526)" fill="#3B7D32" stroke="#A7E5B4" stroke-width="3"/>
<rect x="229.515" y="270.434" width="14.2299" height="22.3914" rx="2.5" transform="rotate(-135 229.515 270.434)" fill="#3B7D32" stroke="#A7E5B4" stroke-width="3"/>
<rect x="156.415" y="197.334" width="14.2299" height="22.3914" rx="2.5" transform="rotate(-135 156.415 197.334)" fill="#3B7D32" stroke="#A7E5B4" stroke-width="3"/>
<rect x="83.3144" y="124.234" width="14.2299" height="22.3914" rx="2.5" transform="rotate(-135 83.3144 124.234)" fill="#3B7D32" stroke="#A7E5B4" stroke-width="3"/>
<rect x="217.331" y="258.251" width="14.2299" height="22.3914" rx="2.5" transform="rotate(-135 217.331 258.251)" fill="#3B7D32" stroke="#A7E5B4" stroke-width="3"/>
<rect x="144.231" y="185.151" width="14.2299" height="22.3914" rx="2.5" transform="rotate(-135 144.231 185.151)" fill="#3B7D32" stroke="#A7E5B4" stroke-width="3"/>
<rect x="71.1311" y="112.051" width="14.2299" height="22.3914" rx="2.5" transform="rotate(-135 71.1311 112.051)" fill="#3B7D32" stroke="#A7E5B4" stroke-width="3"/>
<rect x="205.148" y="246.068" width="14.2299" height="22.3914" rx="2.5" transform="rotate(-135 205.148 246.068)" fill="#3B7D32" stroke="#A7E5B4" stroke-width="3"/>
<rect x="132.048" y="172.968" width="14.2299" height="22.3914" rx="2.5" transform="rotate(-135 132.048 172.968)" fill="#3B7D32" stroke="#A7E5B4" stroke-width="3"/>
<rect x="58.9477" y="99.8673" width="14.2299" height="22.3914" rx="2.5" transform="rotate(-135 58.9477 99.8673)" fill="#3B7D32" stroke="#A7E5B4" stroke-width="3"/>
<rect x="192.965" y="233.884" width="14.2299" height="22.3914" rx="2.5" transform="rotate(-135 192.965 233.884)" fill="#3B7D32" stroke="#A7E5B4" stroke-width="3"/>
<rect x="119.864" y="160.784" width="14.2299" height="22.3914" rx="2.5" transform="rotate(-135 119.864 160.784)" fill="#3B7D32" stroke="#A7E5B4" stroke-width="3"/>
<rect x="46.7643" y="87.684" width="14.2299" height="22.3914" rx="2.5" transform="rotate(-135 46.7643 87.684)" fill="#3B7D32" stroke="#A7E5B4" stroke-width="3"/>
<rect x="180.781" y="221.701" width="14.2299" height="22.3914" rx="2.5" transform="rotate(-135 180.781 221.701)" fill="#3B7D32" stroke="#A7E5B4" stroke-width="3"/>
<rect x="107.681" y="148.601" width="14.2299" height="22.3914" rx="2.5" transform="rotate(-135 107.681 148.601)" fill="#3B7D32" stroke="#A7E5B4" stroke-width="3"/>
<rect x="34.5809" y="75.5006" width="14.2299" height="22.3914" rx="2.5" transform="rotate(-135 34.5809 75.5006)" fill="#3B7D32" stroke="#A7E5B4" stroke-width="3"/>
<rect x="168.598" y="209.518" width="14.2299" height="22.3914" rx="2.5" transform="rotate(-135 168.598 209.518)" fill="#3B7D32" stroke="#A7E5B4" stroke-width="3"/>
<rect x="95.4978" y="136.417" width="14.2299" height="22.3914" rx="2.5" transform="rotate(-135 95.4978 136.417)" fill="#3B7D32" stroke="#A7E5B4" stroke-width="3"/>
<rect x="22.3975" y="63.3172" width="14.2299" height="22.3914" rx="2.5" transform="rotate(-135 22.3975 63.3172)" fill="#3B7D32" stroke="#A7E5B4" stroke-width="3"/>
<rect x="466.129" y="124.875" width="14.2299" height="22.3914" rx="2.5" transform="rotate(-135 466.129 124.875)" fill="#3B7D32" stroke="#A7E5B4" stroke-width="3"/>
<rect x="393.029" y="51.7751" width="14.2299" height="22.3914" rx="2.5" transform="rotate(-135 393.029 51.7751)" fill="#3B7D32" stroke="#A7E5B4" stroke-width="3"/>
<rect x="453.946" y="112.692" width="14.2299" height="22.3914" rx="2.5" transform="rotate(-135 453.946 112.692)" fill="#3B7D32" stroke="#A7E5B4" stroke-width="3"/>
<rect x="380.845" y="39.5917" width="14.2299" height="22.3914" rx="2.5" transform="rotate(-135 380.845 39.5917)" fill="#3B7D32" stroke="#A7E5B4" stroke-width="3"/>
<rect x="441.762" y="100.509" width="14.2299" height="22.3914" rx="2.5" transform="rotate(-135 441.762 100.509)" fill="#3B7D32" stroke="#A7E5B4" stroke-width="3"/>
<rect x="368.662" y="27.4083" width="14.2299" height="22.3914" rx="2.5" transform="rotate(-135 368.662 27.4083)" fill="#3B7D32" stroke="#A7E5B4" stroke-width="3"/>
<rect x="429.579" y="88.3252" width="14.2299" height="22.3914" rx="2.5" transform="rotate(-135 429.579 88.3252)" fill="#3B7D32" stroke="#A7E5B4" stroke-width="3"/>
<rect x="356.478" y="15.225" width="14.2299" height="22.3914" rx="2.5" transform="rotate(-135 356.478 15.225)" fill="#3B7D32" stroke="#A7E5B4" stroke-width="3"/>
<rect x="417.395" y="76.1418" width="14.2299" height="22.3914" rx="2.5" transform="rotate(-135 417.395 76.1418)" fill="#3B7D32" stroke="#A7E5B4" stroke-width="3"/>
<rect x="344.295" y="3.0416" width="14.2299" height="22.3914" rx="2.5" transform="rotate(-135 344.295 3.0416)" fill="#3B7D32" stroke="#A7E5B4" stroke-width="3"/>
<rect x="405.212" y="63.9585" width="14.2299" height="22.3914" rx="2.5" transform="rotate(-135 405.212 63.9585)" fill="#3B7D32" stroke="#A7E5B4" stroke-width="3"/>
</g>
<defs>
<clipPath id="clip0_335_4088">
<rect width="495" height="349" fill="white"/>
</clipPath>
</defs>
</svg>
