<svg width="242" height="241" viewBox="0 0 242 241" fill="none" xmlns="http://www.w3.org/2000/svg">
<rect x="43.5146" y="26.5922" width="8.08716" height="13.339" rx="2.5" fill="#3B7D32" stroke="#A7E5B4" stroke-width="3"/>
<rect x="110.038" y="26.5921" width="8.08716" height="13.339" rx="2.5" fill="#3B7D32" stroke="#A7E5B4" stroke-width="3"/>
<rect x="176.562" y="26.592" width="8.08716" height="13.339" rx="2.5" fill="#3B7D32" stroke="#A7E5B4" stroke-width="3"/>
<rect x="54.6025" y="26.5922" width="8.08716" height="13.339" rx="2.5" fill="#3B7D32" stroke="#A7E5B4" stroke-width="3"/>
<rect x="121.125" y="26.5922" width="8.08716" height="13.339" rx="2.5" fill="#3B7D32" stroke="#A7E5B4" stroke-width="3"/>
<rect x="187.648" y="26.5921" width="8.08716" height="13.339" rx="2.5" fill="#3B7D32" stroke="#A7E5B4" stroke-width="3"/>
<rect x="65.6895" y="26.5921" width="8.08716" height="13.339" rx="2.5" fill="#3B7D32" stroke="#A7E5B4" stroke-width="3"/>
<rect x="132.212" y="26.5921" width="8.08716" height="13.339" rx="2.5" fill="#3B7D32" stroke="#A7E5B4" stroke-width="3"/>
<rect x="198.735" y="26.5922" width="8.08716" height="13.339" rx="2.5" fill="#3B7D32" stroke="#A7E5B4" stroke-width="3"/>
<rect x="76.7769" y="26.5922" width="8.08716" height="13.339" rx="2.5" fill="#3B7D32" stroke="#A7E5B4" stroke-width="3"/>
<rect x="143.3" y="26.5922" width="8.08716" height="13.339" rx="2.5" fill="#3B7D32" stroke="#A7E5B4" stroke-width="3"/>
<rect x="209.822" y="26.5921" width="8.08716" height="13.339" rx="2.5" fill="#3B7D32" stroke="#A7E5B4" stroke-width="3"/>
<rect x="87.8643" y="26.5921" width="8.08716" height="13.339" rx="2.5" fill="#3B7D32" stroke="#A7E5B4" stroke-width="3"/>
<rect x="154.387" y="26.5923" width="8.08716" height="13.339" rx="2.5" fill="#3B7D32" stroke="#A7E5B4" stroke-width="3"/>
<rect x="220.909" y="26.5922" width="8.08716" height="13.339" rx="2.5" fill="#3B7D32" stroke="#A7E5B4" stroke-width="3"/>
<rect x="98.9507" y="26.5922" width="8.08716" height="13.339" rx="2.5" fill="#3B7D32" stroke="#A7E5B4" stroke-width="3"/>
<rect x="165.473" y="26.5922" width="8.08716" height="13.339" rx="2.5" fill="#3B7D32" stroke="#A7E5B4" stroke-width="3"/>
<rect x="231.997" y="26.5921" width="8.08716" height="13.339" rx="2.5" fill="#3B7D32" stroke="#A7E5B4" stroke-width="3"/>
<rect x="1.5" y="201.069" width="8.08716" height="13.339" rx="2.5" fill="#3B7D32" stroke="#A7E5B4" stroke-width="3"/>
<rect x="68.0234" y="201.069" width="8.08716" height="13.339" rx="2.5" fill="#3B7D32" stroke="#A7E5B4" stroke-width="3"/>
<rect x="134.547" y="201.069" width="8.08716" height="13.339" rx="2.5" fill="#3B7D32" stroke="#A7E5B4" stroke-width="3"/>
<rect x="12.5874" y="201.069" width="8.08716" height="13.339" rx="2.5" fill="#3B7D32" stroke="#A7E5B4" stroke-width="3"/>
<rect x="79.1104" y="201.069" width="8.08716" height="13.339" rx="2.5" fill="#3B7D32" stroke="#A7E5B4" stroke-width="3"/>
<rect x="145.634" y="201.069" width="8.08716" height="13.339" rx="2.5" fill="#3B7D32" stroke="#A7E5B4" stroke-width="3"/>
<rect x="23.6748" y="201.069" width="8.08716" height="13.339" rx="2.5" fill="#3B7D32" stroke="#A7E5B4" stroke-width="3"/>
<rect x="90.1978" y="201.069" width="8.08716" height="13.339" rx="2.5" fill="#3B7D32" stroke="#A7E5B4" stroke-width="3"/>
<rect x="156.721" y="201.069" width="8.08716" height="13.339" rx="2.5" fill="#3B7D32" stroke="#A7E5B4" stroke-width="3"/>
<rect x="34.7622" y="201.069" width="8.08716" height="13.339" rx="2.5" fill="#3B7D32" stroke="#A7E5B4" stroke-width="3"/>
<rect x="101.285" y="201.069" width="8.08716" height="13.339" rx="2.5" fill="#3B7D32" stroke="#A7E5B4" stroke-width="3"/>
<rect x="167.808" y="201.069" width="8.08716" height="13.339" rx="2.5" fill="#3B7D32" stroke="#A7E5B4" stroke-width="3"/>
<rect x="45.8496" y="201.069" width="8.08716" height="13.339" rx="2.5" fill="#3B7D32" stroke="#A7E5B4" stroke-width="3"/>
<rect x="112.373" y="201.069" width="8.08716" height="13.339" rx="2.5" fill="#3B7D32" stroke="#A7E5B4" stroke-width="3"/>
<rect x="178.895" y="201.069" width="8.08716" height="13.339" rx="2.5" fill="#3B7D32" stroke="#A7E5B4" stroke-width="3"/>
<rect x="56.9365" y="201.069" width="8.08716" height="13.339" rx="2.5" fill="#3B7D32" stroke="#A7E5B4" stroke-width="3"/>
<rect x="123.459" y="201.069" width="8.08716" height="13.339" rx="2.5" fill="#3B7D32" stroke="#A7E5B4" stroke-width="3"/>
<rect x="189.982" y="201.069" width="8.08716" height="13.339" rx="2.5" fill="#3B7D32" stroke="#A7E5B4" stroke-width="3"/>
<rect x="27.1763" y="198.069" width="8.08716" height="13.339" rx="2.5" transform="rotate(-90 27.1763 198.069)" fill="#3B7D32" stroke="#A7E5B4" stroke-width="3"/>
<rect x="27.1763" y="131.546" width="8.08716" height="13.339" rx="2.5" transform="rotate(-90 27.1763 131.546)" fill="#3B7D32" stroke="#A7E5B4" stroke-width="3"/>
<rect x="27.1763" y="65.0228" width="8.08716" height="13.339" rx="2.5" transform="rotate(-90 27.1763 65.0228)" fill="#3B7D32" stroke="#A7E5B4" stroke-width="3"/>
<rect x="27.1763" y="186.982" width="8.08716" height="13.339" rx="2.5" transform="rotate(-90 27.1763 186.982)" fill="#3B7D32" stroke="#A7E5B4" stroke-width="3"/>
<rect x="27.1763" y="120.459" width="8.08716" height="13.339" rx="2.5" transform="rotate(-90 27.1763 120.459)" fill="#3B7D32" stroke="#A7E5B4" stroke-width="3"/>
<rect x="27.1763" y="53.9357" width="8.08716" height="13.339" rx="2.5" transform="rotate(-90 27.1763 53.9357)" fill="#3B7D32" stroke="#A7E5B4" stroke-width="3"/>
<rect x="27.1763" y="175.894" width="8.08716" height="13.339" rx="2.5" transform="rotate(-90 27.1763 175.894)" fill="#3B7D32" stroke="#A7E5B4" stroke-width="3"/>
<rect x="27.1763" y="109.372" width="8.08716" height="13.339" rx="2.5" transform="rotate(-90 27.1763 109.372)" fill="#3B7D32" stroke="#A7E5B4" stroke-width="3"/>
<rect x="27.1763" y="42.8485" width="8.08716" height="13.339" rx="2.5" transform="rotate(-90 27.1763 42.8485)" fill="#3B7D32" stroke="#A7E5B4" stroke-width="3"/>
<rect x="27.1763" y="164.807" width="8.08716" height="13.339" rx="2.5" transform="rotate(-90 27.1763 164.807)" fill="#3B7D32" stroke="#A7E5B4" stroke-width="3"/>
<rect x="27.1763" y="98.2844" width="8.08716" height="13.339" rx="2.5" transform="rotate(-90 27.1763 98.2844)" fill="#3B7D32" stroke="#A7E5B4" stroke-width="3"/>
<rect x="27.1763" y="31.7615" width="8.08716" height="13.339" rx="2.5" transform="rotate(-90 27.1763 31.7615)" fill="#3B7D32" stroke="#A7E5B4" stroke-width="3"/>
<rect x="27.1763" y="153.72" width="8.08716" height="13.339" rx="2.5" transform="rotate(-90 27.1763 153.72)" fill="#3B7D32" stroke="#A7E5B4" stroke-width="3"/>
<rect x="27.1763" y="87.1973" width="8.08716" height="13.339" rx="2.5" transform="rotate(-90 27.1763 87.1973)" fill="#3B7D32" stroke="#A7E5B4" stroke-width="3"/>
<rect x="27.1763" y="20.6742" width="8.08716" height="13.339" rx="2.5" transform="rotate(-90 27.1763 20.6742)" fill="#3B7D32" stroke="#A7E5B4" stroke-width="3"/>
<rect x="27.1763" y="142.633" width="8.08716" height="13.339" rx="2.5" transform="rotate(-90 27.1763 142.633)" fill="#3B7D32" stroke="#A7E5B4" stroke-width="3"/>
<rect x="27.1763" y="76.1101" width="8.08716" height="13.339" rx="2.5" transform="rotate(-90 27.1763 76.1101)" fill="#3B7D32" stroke="#A7E5B4" stroke-width="3"/>
<rect x="27.1763" y="9.58722" width="8.08716" height="13.339" rx="2.5" transform="rotate(-90 27.1763 9.58722)" fill="#3B7D32" stroke="#A7E5B4" stroke-width="3"/>
<rect x="201.069" y="239.5" width="8.08716" height="13.339" rx="2.5" transform="rotate(-90 201.069 239.5)" fill="#3B7D32" stroke="#A7E5B4" stroke-width="3"/>
<rect x="201.069" y="172.977" width="8.08716" height="13.339" rx="2.5" transform="rotate(-90 201.069 172.977)" fill="#3B7D32" stroke="#A7E5B4" stroke-width="3"/>
<rect x="201.069" y="106.454" width="8.08716" height="13.339" rx="2.5" transform="rotate(-90 201.069 106.454)" fill="#3B7D32" stroke="#A7E5B4" stroke-width="3"/>
<rect x="201.069" y="228.413" width="8.08716" height="13.339" rx="2.5" transform="rotate(-90 201.069 228.413)" fill="#3B7D32" stroke="#A7E5B4" stroke-width="3"/>
<rect x="201.069" y="161.89" width="8.08716" height="13.339" rx="2.5" transform="rotate(-90 201.069 161.89)" fill="#3B7D32" stroke="#A7E5B4" stroke-width="3"/>
<rect x="201.069" y="95.367" width="8.08716" height="13.339" rx="2.5" transform="rotate(-90 201.069 95.367)" fill="#3B7D32" stroke="#A7E5B4" stroke-width="3"/>
<rect x="201.069" y="217.326" width="8.08716" height="13.339" rx="2.5" transform="rotate(-90 201.069 217.326)" fill="#3B7D32" stroke="#A7E5B4" stroke-width="3"/>
<rect x="201.069" y="150.803" width="8.08716" height="13.339" rx="2.5" transform="rotate(-90 201.069 150.803)" fill="#3B7D32" stroke="#A7E5B4" stroke-width="3"/>
<rect x="201.069" y="84.2798" width="8.08716" height="13.339" rx="2.5" transform="rotate(-90 201.069 84.2798)" fill="#3B7D32" stroke="#A7E5B4" stroke-width="3"/>
<rect x="201.069" y="206.239" width="8.08716" height="13.339" rx="2.5" transform="rotate(-90 201.069 206.239)" fill="#3B7D32" stroke="#A7E5B4" stroke-width="3"/>
<rect x="201.069" y="139.716" width="8.08716" height="13.339" rx="2.5" transform="rotate(-90 201.069 139.716)" fill="#3B7D32" stroke="#A7E5B4" stroke-width="3"/>
<rect x="201.069" y="73.1928" width="8.08716" height="13.339" rx="2.5" transform="rotate(-90 201.069 73.1928)" fill="#3B7D32" stroke="#A7E5B4" stroke-width="3"/>
<rect x="201.069" y="195.151" width="8.08716" height="13.339" rx="2.5" transform="rotate(-90 201.069 195.151)" fill="#3B7D32" stroke="#A7E5B4" stroke-width="3"/>
<rect x="201.069" y="128.628" width="8.08716" height="13.339" rx="2.5" transform="rotate(-90 201.069 128.628)" fill="#3B7D32" stroke="#A7E5B4" stroke-width="3"/>
<rect x="201.069" y="62.1055" width="8.08716" height="13.339" rx="2.5" transform="rotate(-90 201.069 62.1055)" fill="#3B7D32" stroke="#A7E5B4" stroke-width="3"/>
<rect x="201.069" y="184.064" width="8.08716" height="13.339" rx="2.5" transform="rotate(-90 201.069 184.064)" fill="#3B7D32" stroke="#A7E5B4" stroke-width="3"/>
<rect x="201.069" y="117.541" width="8.08716" height="13.339" rx="2.5" transform="rotate(-90 201.069 117.541)" fill="#3B7D32" stroke="#A7E5B4" stroke-width="3"/>
<rect x="201.069" y="51.0185" width="8.08716" height="13.339" rx="2.5" transform="rotate(-90 201.069 51.0185)" fill="#3B7D32" stroke="#A7E5B4" stroke-width="3"/>
</svg>
